<svg width="24" height="24" viewBox="0 0 24 24" fill="none" xmlns="http://www.w3.org/2000/svg">
<path d="M12.0001 8.81072C12.9765 8.81072 13.6352 9.23249 14.0107 9.58494L15.4783 8.15205C14.577 7.31427 13.4041 6.80005 12.0001 6.80005C9.96629 6.80005 8.20985 7.96716 7.35474 9.66583L9.03607 10.9716C9.45785 9.71783 10.625 8.81072 12.0001 8.81072V8.81072Z" fill="white"/>
<path d="M16.992 12.1156C16.992 11.688 16.9573 11.376 16.8822 11.0525H12V12.9823H14.8658C14.808 13.4618 14.496 14.184 13.8027 14.6694L15.4436 15.9405C16.4258 15.0334 16.992 13.6987 16.992 12.1156V12.1156Z" fill="white"/>
<path d="M9.04183 13.0284C8.93205 12.7049 8.86849 12.3582 8.86849 12C8.86849 11.6418 8.93205 11.2951 9.03605 10.9715L7.35472 9.66577C7.00227 10.3707 6.80005 11.1622 6.80005 12C6.80005 12.8378 7.00227 13.6293 7.35472 14.3342L9.04183 13.0284V13.0284Z" fill="white"/>
<path d="M12.0002 17.2001C13.4042 17.2001 14.5828 16.7379 15.4437 15.9406L13.8028 14.6695C13.3637 14.9757 12.7744 15.1895 12.0002 15.1895C10.625 15.1895 9.45793 14.2823 9.04193 13.0286L7.3606 14.3343C8.21571 16.033 9.96637 17.2001 12.0002 17.2001V17.2001Z" fill="white"/>
</svg>
